<svg width="854" height="313" viewBox="0 0 854 313" fill="none" xmlns="http://www.w3.org/2000/svg">
<path d="M619.598 134.933L555.516 96.9066L619.598 58.8806H552.639L520.985 77.5342L496.523 63.1019H429.159L486.455 96.9066L429.159 130.768H496.399L520.985 116.21L552.763 134.933H619.598Z" fill="white"/>
<path d="M619.598 58.8806L683.67 96.9636L619.598 134.933H686.546L718.2 116.268L742.718 130.768H810.026L752.73 96.9636L810.026 63.1019H742.786L718.2 77.5913L686.479 58.8806H619.598Z" fill="white"/>
<path d="M263.374 86.5701H218.843V63.2731H174.537V130.654H218.843V107.357H263.374V130.654H307.736V63.2731H263.374V86.5701Z" fill="white"/>
<path d="M84.5309 96.724C84.5309 90.0726 96.0597 85.3722 114.904 85.3722C130.354 85.3722 143.4 88.8177 150.771 93.096L163.3 69.2171C150.659 63.0335 133.107 59.4739 112.387 59.4739C69.8446 59.4739 40 75.1041 40 96.724C40 118.344 69.8446 133.974 112.387 133.974C136.849 133.974 152.884 131.122 166.109 127.323V96.9066C152.827 102.486 137.377 108.019 118.702 108.019C100.026 108.019 84.5871 103.33 84.5871 96.667L84.5309 96.724Z" fill="white"/>
<path d="M315.691 130.586H427.238V110.095H359.874V105.041H394.056V88.9431H359.874V83.7179H427.238V63.216H315.691V130.586Z" fill="white"/>
<path d="M619.576 58.8806L586.709 96.9066H652.398L619.576 58.8806Z" fill="#FFA3D4"/>
<path d="M619.576 134.933L652.398 96.9066H586.709L619.576 134.933Z" fill="#FF045C"/>
<path d="M554.662 96.9066H586.709L619.587 58.8806L554.662 96.9066Z" fill="#FF045C"/>
<path d="M554.662 96.9066L619.587 134.933L586.709 96.9066H554.662Z" fill="#C10058"/>
<path d="M619.587 58.8806L652.398 96.9066H684.501L619.587 58.8806Z" fill="#C10058"/>
<path d="M652.398 96.9066L619.587 134.933L684.501 96.9066H652.398Z" fill="#FF3BB9"/>
<path d="M491.011 264.601L484.794 175.69L576.041 169.309C605.547 167.246 619.808 175.056 620.777 188.9C621.354 197.156 614.652 205.921 602.177 208.708L602.248 209.724C618.862 210.094 629.434 219.311 630.189 230.107C631.202 244.587 617.094 255.784 587.717 257.838L491.011 264.601ZM525.579 211.639L570.032 208.531C577.441 208.013 583.431 204.02 583.076 198.94C582.721 193.859 577.412 190.784 569.223 191.357L524.38 194.492L525.579 211.639ZM527.596 240.472L576.597 237.045C585.176 236.446 590.257 232.516 589.893 227.309C589.52 221.974 583.431 218.954 575.112 219.535L526.37 222.944L527.596 240.472Z" fill="white"/>
<path d="M725.029 186.013L671.62 189.747L672.531 202.775L718.415 199.567L719.339 212.792L673.456 216.001L674.36 228.939L727.769 225.204L729.359 247.94L638.439 254.298L632.222 165.387L723.142 159.029L725.029 186.013Z" fill="white"/>
<path d="M810.427 180.162L790.004 181.59L794.338 243.574L757.339 246.161L753.005 184.177L734.577 185.466L732.694 158.539L808.544 153.235L810.427 180.162Z" fill="white"/>
</svg>
